# Blender v2.83.5 OBJ File: ''
# www.blender.org
mtllib untitled.mtl
o Cylindre.001_Cylindre.002
v 0.000000 -0.265539 -0.975433
v 0.000000 0.280549 -0.930204
v 0.198743 -0.266566 -0.959090
v 0.178258 0.285968 -0.909966
v 0.394004 -0.269595 -0.917625
v 0.354762 0.289515 -0.856574
v -0.572162 -0.286319 0.840357
v -0.557961 0.288019 0.831235
v -0.727967 -0.275024 0.722868
v -0.683721 0.291327 0.675498
v -0.819317 -0.264516 0.547790
v -0.791767 0.279508 0.522020
v -0.945638 -0.268475 0.396857
v -0.877681 0.277451 0.362070
v -0.954512 -0.278159 0.198265
v -0.948876 0.286050 0.193822
v -0.961445 -0.262887 0.005824
v -0.985547 0.306538 0.003905
v -0.940140 -0.264729 -0.185063
v -0.942413 0.302712 -0.196430
v -0.886001 -0.262970 -0.362662
v -0.870199 0.289082 -0.371890
v -0.811319 -0.265091 -0.533163
v -0.850187 0.273687 -0.564272
v -0.721621 -0.269063 -0.709565
v -0.690640 0.280325 -0.694995
v -0.570745 -0.273811 -0.833962
v -0.527596 0.276697 -0.794629
v -0.393502 -0.269590 -0.917800
v -0.356586 0.289165 -0.859557
v -0.198741 -0.266566 -0.959090
v -0.178257 0.285968 -0.909967
v 0.000000 -0.265539 -0.975433
v 0.000000 0.280549 -0.930204
v 0.198743 -0.266566 -0.959090
v 0.178258 0.285968 -0.909966
v 0.394004 -0.269595 -0.917625
v 0.354762 0.289515 -0.856574
v 0.567425 -0.275064 -0.825579
v 0.526458 0.276708 -0.795303
v 0.722267 -0.269097 -0.708819
v 0.687863 0.280224 -0.696937
v 0.811387 -0.265079 -0.533178
v 0.846395 0.273654 -0.570031
v 0.886002 -0.262970 -0.362661
v 0.877008 0.288291 -0.374918
v 0.932798 -0.266050 -0.182394
v 0.942410 0.302712 -0.196440
v 0.961680 -0.262903 0.007583
v 0.985547 0.306538 0.003906
v 0.977933 -0.273911 0.207365
v 0.948876 0.286050 0.193823
v 0.944744 -0.268481 0.399271
v 0.877681 0.277451 0.362071
v 0.819317 -0.264516 0.547791
v 0.791870 0.279509 0.521847
v 0.727412 -0.275026 0.723521
v 0.684012 0.291326 0.675178
v 0.579751 -0.283701 0.857658
v 0.559515 0.288019 0.830057
v 0.383576 -0.274290 0.901786
v 0.400063 0.316950 0.934940
v 0.191685 -0.271722 0.943734
v 0.218555 0.310990 1.045071
v -0.000000 -0.267102 0.947006
v 0.001075 0.310461 1.018492
v -0.191685 -0.271722 0.943734
v -0.212508 0.310932 1.045194
v -0.383789 -0.274287 0.901721
v -0.389671 0.317815 0.918256
v -0.572162 -0.286319 0.840357
v -0.557961 0.288019 0.831235
v -0.727967 -0.275024 0.722868
v -0.683721 0.291327 0.675498
v -0.819317 -0.264516 0.547790
v -0.791767 0.279508 0.522020
v -0.945638 -0.268475 0.396857
v -0.877681 0.277451 0.362070
v -0.954512 -0.278159 0.198265
v -0.948876 0.286050 0.193822
v -0.961445 -0.262887 0.005824
v -0.985547 0.306538 0.003905
v -0.940140 -0.264729 -0.185063
v -0.942413 0.302712 -0.196430
v -0.886001 -0.262970 -0.362662
v -0.870199 0.289082 -0.371890
v -0.811319 -0.265091 -0.533163
v -0.850187 0.273687 -0.564272
v -0.721621 -0.269063 -0.709565
v -0.690640 0.280325 -0.694995
v -0.570745 -0.273811 -0.833962
v -0.527596 0.276697 -0.794629
v -0.393502 -0.269590 -0.917800
v -0.356586 0.289165 -0.859557
v -0.198741 -0.266566 -0.959090
v -0.178257 0.285968 -0.909967
vt 1.000000 0.500000
vt 1.000000 1.000000
vt 0.968750 1.000000
vt 0.968750 0.500000
vt 0.937500 1.000000
vt 0.937500 0.500000
vt 0.406250 0.500000
vt 0.406250 1.000000
vt 0.375000 1.000000
vt 0.375000 0.500000
vt 0.343750 1.000000
vt 0.343750 0.500000
vt 0.312500 1.000000
vt 0.312500 0.500000
vt 0.281250 1.000000
vt 0.281250 0.500000
vt 0.250000 1.000000
vt 0.250000 0.500000
vt 0.218750 1.000000
vt 0.218750 0.500000
vt 0.187500 1.000000
vt 0.187500 0.500000
vt 0.156250 1.000000
vt 0.156250 0.500000
vt 0.125000 1.000000
vt 0.125000 0.500000
vt 0.093750 1.000000
vt 0.093750 0.500000
vt 0.062500 1.000000
vt 0.062500 0.500000
vt 0.031250 1.000000
vt 0.031250 0.500000
vt 0.000000 1.000000
vt 0.000000 0.500000
vt 0.937500 0.500000
vt 0.937500 1.000000
vt 0.906250 1.000000
vt 0.906250 0.500000
vt 0.875000 1.000000
vt 0.875000 0.500000
vt 0.843750 1.000000
vt 0.843750 0.500000
vt 0.812500 1.000000
vt 0.812500 0.500000
vt 0.781250 1.000000
vt 0.781250 0.500000
vt 0.750000 1.000000
vt 0.750000 0.500000
vt 0.718750 1.000000
vt 0.718750 0.500000
vt 0.687500 1.000000
vt 0.687500 0.500000
vt 0.656250 1.000000
vt 0.656250 0.500000
vt 0.625000 1.000000
vt 0.625000 0.500000
vt 0.593750 1.000000
vt 0.593750 0.500000
vt 0.562500 1.000000
vt 0.562500 0.500000
vt 0.531250 1.000000
vt 0.531250 0.500000
vt 0.500000 1.000000
vt 0.500000 0.500000
vt 0.468750 1.000000
vt 0.468750 0.500000
vt 0.437500 1.000000
vt 0.437500 0.500000
vt 0.406250 1.000000
vt 0.406250 0.500000
vt 0.296822 0.485388
vt 0.250000 0.490000
vt 0.203179 0.485389
vt 0.158156 0.471731
vt 0.116663 0.449553
vt 0.080295 0.419706
vt 0.050447 0.383337
vt 0.028269 0.341844
vt 0.014612 0.296822
vt 0.010000 0.250000
vt 0.014611 0.203179
vt 0.028269 0.158156
vt 0.050447 0.116663
vt 0.080294 0.080294
vt 0.116663 0.050447
vt 0.158156 0.028269
vt 0.203178 0.014612
vt 0.250000 0.010000
vt 0.296822 0.014612
vt 0.341844 0.028269
vt 0.383337 0.050447
vt 0.419706 0.080294
vt 0.449553 0.116663
vt 0.471731 0.158156
vt 0.485388 0.203178
vt 0.490000 0.250000
vt 0.485388 0.296822
vt 0.471731 0.341844
vt 0.449553 0.383337
vt 0.419706 0.419706
vt 0.383337 0.449553
vt 0.341844 0.471731
vt 0.750000 0.490000
vt 0.796822 0.485388
vt 0.841844 0.471731
vt 0.883337 0.449553
vt 0.919706 0.419706
vt 0.949553 0.383337
vt 0.971731 0.341844
vt 0.985388 0.296822
vt 0.990000 0.250000
vt 0.985388 0.203178
vt 0.971731 0.158156
vt 0.949553 0.116663
vt 0.919706 0.080294
vt 0.883337 0.050447
vt 0.841844 0.028269
vt 0.796822 0.014612
vt 0.750000 0.010000
vt 0.703178 0.014612
vt 0.658156 0.028269
vt 0.616663 0.050447
vt 0.580294 0.080294
vt 0.550447 0.116663
vt 0.528269 0.158156
vt 0.514611 0.203179
vt 0.510000 0.250000
vt 0.514612 0.296822
vt 0.528269 0.341844
vt 0.550447 0.383337
vt 0.580295 0.419706
vt 0.616663 0.449553
vt 0.658156 0.471731
vt 0.703179 0.485389
vn 0.0952 0.0869 -0.9917
vn 0.2456 0.1087 -0.9633
vn -0.6927 0.0710 0.7177
vn -0.8516 0.0891 0.5165
vn -0.8224 0.1031 0.5595
vn -0.9745 0.0721 0.2125
vn -0.9936 -0.0156 0.1119
vn -0.9865 -0.0248 -0.1621
vn -0.9415 0.0052 -0.3371
vn -0.9675 -0.0297 -0.2510
vn -0.7763 -0.0152 -0.6302
vn -0.5777 0.0788 -0.8124
vn -0.3949 0.1088 -0.9123
vn -0.2373 0.1056 -0.9657
vn -0.0952 0.0869 -0.9917
vn 0.4084 0.1040 -0.9069
vn 0.5596 0.0699 -0.8258
vn 0.7737 -0.0150 -0.6334
vn 0.9608 -0.0353 -0.2749
vn 0.9545 -0.0075 -0.2983
vn 0.9830 -0.0317 -0.1808
vn 0.9986 0.0054 0.0528
vn 0.9558 0.0958 0.2779
vn 0.8214 0.1037 0.5608
vn 0.8516 0.0889 0.5166
vn 0.7235 0.0862 0.6849
vn 0.3862 -0.0032 0.9224
vn 0.3754 -0.1192 0.9192
vn -0.0577 -0.1457 0.9876
vn 0.0586 -0.1462 0.9875
vn -0.4149 -0.1003 0.9043
vn -0.3838 -0.0031 0.9234
vn 0.0001 0.9999 -0.0101
vn 0.0002 -1.0000 -0.0034
usemtl Matériau
s off
f 1/1/1 2/2/1 4/3/1 3/4/1
f 3/4/2 4/3/2 6/5/2 5/6/2
f 7/7/3 8/8/3 10/9/3 9/10/3
f 9/10/4 10/9/4 12/11/4 11/12/4
f 11/12/5 12/11/5 14/13/5 13/14/5
f 13/14/6 14/13/6 16/15/6 15/16/6
f 15/16/7 16/15/7 18/17/7 17/18/7
f 17/18/8 18/17/8 20/19/8 19/20/8
f 19/20/9 20/19/9 22/21/9 21/22/9
f 21/22/10 22/21/10 24/23/10 23/24/10
f 23/24/11 24/23/11 26/25/11 25/26/11
f 25/26/12 26/25/12 28/27/12 27/28/12
f 27/28/13 28/27/13 30/29/13 29/30/13
f 29/30/14 30/29/14 32/31/14 31/32/14
f 31/32/15 32/31/15 2/33/15 1/34/15
f 37/35/16 38/36/16 40/37/16 39/38/16
f 39/38/17 40/37/17 42/39/17 41/40/17
f 41/40/18 42/39/18 44/41/18 43/42/18
f 43/42/19 44/41/19 46/43/19 45/44/19
f 45/44/20 46/43/20 48/45/20 47/46/20
f 47/46/21 48/45/21 50/47/21 49/48/21
f 49/48/22 50/47/22 52/49/22 51/50/22
f 51/50/23 52/49/23 54/51/23 53/52/23
f 53/52/24 54/51/24 56/53/24 55/54/24
f 55/54/25 56/53/25 58/55/25 57/56/25
f 57/56/26 58/55/26 60/57/26 59/58/26
f 59/58/27 60/57/27 62/59/27 61/60/27
f 61/60/28 62/59/28 64/61/28 63/62/28
f 63/62/29 64/61/29 66/63/29 65/64/29
f 65/64/30 66/63/30 68/65/30 67/66/30
f 67/66/31 68/65/31 70/67/31 69/68/31
f 69/68/32 70/67/32 72/69/32 71/70/32
f 36/71/33 34/72/33 96/73/33 94/74/33 92/75/33 90/76/33 88/77/33 86/78/33 84/79/33 82/80/33 80/81/33 78/82/33 76/83/33 74/84/33 72/85/33 70/86/33 68/87/33 66/88/33 64/89/33 62/90/33 60/91/33 58/92/33 56/93/33 54/94/33 52/95/33 50/96/33 48/97/33 46/98/33 44/99/33 42/100/33 40/101/33 38/102/33
f 33/103/34 35/104/34 37/105/34 39/106/34 41/107/34 43/108/34 45/109/34 47/110/34 49/111/34 51/112/34 53/113/34 55/114/34 57/115/34 59/116/34 61/117/34 63/118/34 65/119/34 67/120/34 69/121/34 71/122/34 73/123/34 75/124/34 77/125/34 79/126/34 81/127/34 83/128/34 85/129/34 87/130/34 89/131/34 91/132/34 93/133/34 95/134/34
